<svg width="212" height="44" viewBox="0 0 212 44" fill="none" xmlns="http://www.w3.org/2000/svg">
<path d="M13.2778 20.3182C14.1 17.25 17.2539 14.0961 20.3222 13.2738L39.4512 8.14743C42.5194 7.32516 44.3402 9.14591 43.5179 12.2142L38.3916 31.3432C37.5693 34.4114 34.4154 37.5653 31.3471 38.3876L12.2181 43.514C9.14988 44.3362 7.32913 42.5155 8.15139 39.4472L13.2778 20.3182Z" fill="#98A2B3"/>
<path d="M5.60882 12.6493C6.43108 9.58107 9.58498 6.42717 12.6533 5.60491L31.7822 0.47854C34.8505 -0.343725 36.6713 1.47702 35.849 4.54529L30.7226 23.6743C29.9004 26.7425 26.7465 29.8964 23.6782 30.7187L4.5492 35.8451C1.48093 36.6673 -0.339816 34.8466 0.482448 31.7783L5.60882 12.6493Z" fill="#667085"/>
<path d="M58.464 33V9.16H74.176V12.52H62.24V19.368H73.536V22.728H62.24V29.64H74.176V33H58.464ZM82.5467 33V12.52H76.2107V9.16H92.5308V12.52H86.2907V33H82.5467ZM95.994 33V9.16H104.666C106.266 9.16 107.674 9.45867 108.89 10.056C110.127 10.632 111.087 11.4853 111.77 12.616C112.453 13.7253 112.794 15.0587 112.794 16.616C112.794 18.152 112.442 19.4747 111.738 20.584C111.055 21.6933 110.106 22.5467 108.89 23.144C107.674 23.7413 106.266 24.04 104.666 24.04H99.77V33H95.994ZM99.77 20.68H104.762C105.615 20.68 106.362 20.5093 107.002 20.168C107.642 19.8267 108.143 19.3573 108.506 18.76C108.869 18.1413 109.05 17.416 109.05 16.584C109.05 15.752 108.869 15.0373 108.506 14.44C108.143 13.8213 107.642 13.352 107.002 13.032C106.362 12.6907 105.615 12.52 104.762 12.52H99.77V20.68ZM117.321 33V9.16H121.097V29.64H131.401V33H117.321ZM135.403 25.928V22.728H148.203V25.928H135.403ZM158.2 33V12.52H151.864V9.16H168.184V12.52H161.944V33H158.2ZM171.648 33V9.16H175.168L184.128 21.576H182.368L191.168 9.16H194.688V33H190.944V13.608L192.352 13.992L183.36 26.28H182.976L174.176 13.992L175.424 13.608V33H171.648Z" fill="#5577FF"/>
</svg>
